<svg xmlns="http://www.w3.org/2000/svg" width="239.392" height="57.982" viewBox="0 0 239.392 57.982">
    <defs>
        <style>
            .cls-1{fill:#fbb03b}.cls-4{fill:#fff}.cls-3{fill:#2c393f}
        </style>
    </defs>
    <g id="Group_4516" data-name="Group 4516" transform="translate(-10 -10)">
        <path id="Rectangle_5" d="M0 0H2.718V1.275H0z" class="cls-1" data-name="Rectangle 5" transform="translate(173.763 42.02)"/>
        <text id="QUY_L_NG" fill="#fff" data-name="QUY L NG" font-family="SegoeUI, Segoe UI" font-size="35px" transform="translate(55.392 52.806)">
            <tspan x="0" y="0">QUY L NG</tspan>
        </text>
        <circle id="Ellipse_46" cx="18.273" cy="18.273" r="18.273" class="cls-1" data-name="Ellipse 46" transform="translate(157.901 21.961)"/>
        <path id="Path_8054" d="M132.591 142.395c-.13-2.391.222-3.151 2.15-4.727.3-2.058.3-2.836.556-5.3.148-1.261 7.934-6.21 12.624-6.748a74.981 74.981 0 0 0 1.879-7.92s-.472.033-.788.028c.584-3 2.616-4.176 4.171-4.2 2.53-6.117 20.049-8.342 27.992-7.438.508.053.616.533 0 .468-8.324-.779-11.568 3.689-11.568 3.689 3.986-2.132 6.554-2.151 7.882-2.078.493.067.474.586-.059.494-2.836-.417-5.255 3.17-5.367 6.924 0 .361-.862 8.342-.945 9.538-4.11 1.174-18.111 6.9-21.022 8.4-.028.667-.028 10.233-.056 13.181 1.085.027 2.642-.083 2.642-.083 2.975-8.259 7.146-8.176 10.567-7.786a47.763 47.763 0 0 1-1.557 7.174c-.111.111-.167 1.2-3.114 1.168 0 0-1.529.111-5.867.083a12.284 12.284 0 0 0-.945 4.644c6.424 1.279 9.455-.083 12.791-1.112.25-7.063 1.919-14.932 6.4-13.876 1.891.445 2.795 1.113 3.328 3.939-.036.2-.311.166-.408 0-4.375-6.97-7.675 4.375-7.526 11.091a35.2 35.2 0 0 1-6.822 2.071c-5.784.667-3.263.742-9.38 0-5.708-1.566-14.311-3.43-18.056-4.672-.281-2.911-.336-4.709.498-6.952z" class="cls-1" data-name="Path 8054" transform="translate(-121.906 -86.565)"/>
        <path id="Path_8055" d="M153.392 287.91c.076-.453-.009-.809.575-.91h12.214c.473 0 .591.2.667.487.278.561-.029 10.193.054 11.509-.017.508-.586.6-1.083.614-1.766-.069-10.873-1.349-12.179-1.6-.362-.153-.487-.153-.514-.5a58.374 58.374 0 0 1 .266-9.6z" class="cls-3" data-name="Path 8055" transform="translate(-139.838 -240.089)"/>
        <path id="Path_8056" d="M267.368 177.659c.545-.056.722-.09.841-.836.268-2.67.461-5.239.781-7.6.061-.368-.021-.552-.487-.542-2-.028-16.267 1.919-18.186 2.113a1.015 1.015 0 0 0-.723.417c-.539.7-1.474 4.31-1.724 6.451a.378.378 0 0 0 .417.473" class="cls-3" data-name="Path 8056" transform="translate(-220.209 -139.783)"/>
        <path id="Path_8057" d="M488.833 93.784a3.142 3.142 0 1 1-3.142-3.142 3.142 3.142 0 0 1 3.142 3.142z" class="cls-1" data-name="Path 8057" transform="translate(-419.155 -73.631)"/>
        <path id="Path_8058" d="M550.384 62.977a3.573 3.573 0 1 1-3.573-3.573 3.573 3.573 0 0 1 3.573 3.573z" class="cls-1" data-name="Path 8058" transform="translate(-470.603 -47.15)"/>
        <circle id="Ellipse_47" cx="4.326" cy="4.326" r="4.326" class="cls-1" data-name="Ellipse 47" transform="translate(84.258 10)"/>
        <path id="Rectangle_1406" d="M0 0H83.392V1.523H0z" class="cls-4" data-name="Rectangle 1406" transform="translate(57.828 60.311)"/>
        <text id="l_o_g_i_s_t_i_c_s" fill="#fff" data-name="l o g i s t i c s" font-family="TwCenMT-Bold, Tw Cen MT" font-size="9px" font-weight="700" transform="translate(189.03 62.248)">
            <tspan x="0" y="0">l o g i s t i c s</tspan>
        </text>
        <circle id="Ellipse_48" cx="11.877" cy="11.877" r="11.877" class="cls-3" data-name="Ellipse 48" transform="translate(164.296 28.357)"/>
        <path id="Path_8059" d="M1073 143.238c14.66-6.787 36.65-21.99 41.265-47.238 2.443 13.574-3.8 36.107-18.461 47.509-20.361 0-22.804-.271-22.804-.271z" class="cls-4" data-name="Path 8059" transform="translate(-928.499 -80.13)"/>
        <path id="Path_8060" d="M1105.377 269.342c17.509-5.814 27.369-19.861 29.96-25.855-2.7 8.96-11.6 21.259-19.137 26.333-5.11-.332-10.823-.478-10.823-.478z" class="cls-3" data-name="Path 8060" transform="translate(-955.946 -205.158)"/>
        <path id="Path_8061" d="M1302.243 103.72a27.906 27.906 0 0 0 3.531-6.72c-.761 3.807-3.2 10.642-4.872 13.011-.762-.22-1.1-.329-1.1-.329z" class="cls-1" data-name="Path 8061" transform="translate(-1120.769 -80.977)"/>
        <path id="Path_8062" d="M1310.374 144.278s.628.262.876.371a45.11 45.11 0 0 1-2.462 5.91 6.367 6.367 0 0 1-1.019-.428z" class="cls-3" data-name="Path 8062" transform="translate(-1127.519 -121.056)"/>
        <path id="Path_8063" d="M1263.352 331.176a49.548 49.548 0 0 1-4.578 6.142 8.21 8.21 0 0 0 1.678.308c.083.007 5.115-6.887 5.115-6.887" class="cls-3" data-name="Path 8063" transform="translate(-1085.985 -279.124)"/>
        <path id="Path_8064" d="M1248.716 327.364a62.571 62.571 0 0 1-9.716 11.465c5.33-4.111 3.655-2.741 5.827-4.749 1.786-1.951 5.686-7.316 5.686-7.316z" class="cls-1" data-name="Path 8064" transform="translate(-1069.222 -275.753)"/>
        <path id="Path_8065" d="M1250.157 328.094a62.58 62.58 0 0 1-9.944 11.267c5.411-4 3.709-2.667 5.921-4.631 1.825-1.915 5.832-7.2 5.832-7.2z" class="cls-1" data-name="Path 8065" transform="translate(-1070.25 -276.403)"/>
        <path id="Path_8066" d="M1187.823 308.549l4.877-4.142s.023-.064.349.42c-.021.277-4.864 4.154-4.864 4.154z" class="cls-3" data-name="Path 8066" transform="translate(-1025.838 -256.799)"/>
        <path id="Path_8067" d="M1341.083 155.621a4.076 4.076 0 0 1 .54.369 42.392 42.392 0 0 1-1.129 7.691c-.291-.236-.121-.069-.434-.533a61.686 61.686 0 0 0 1.023-7.527z" class="cls-3" data-name="Path 8067" transform="translate(-1154.892 -130.672)"/>
        <path id="Path_8068" d="M1090 375h1.523l-1.523 1.523z" class="cls-4" data-name="Path 8068" transform="translate(-948.78 -314.689)"/>
    </g>
</svg>
